<svg width="49" height="49" viewBox="0 0 49 49" fill="none" xmlns="http://www.w3.org/2000/svg">
<path d="M33.334 18.9238C33.334 13.2923 30.104 10.0623 24.4725 10.0623C18.841 10.0623 15.6109 13.2923 15.6109 18.9238C9.97942 18.9238 6.74939 22.1538 6.74939 27.7853C6.74939 33.4168 9.97942 36.6469 15.6109 36.6469V33.693C11.5804 33.693 9.70324 31.8159 9.70324 27.7853C9.70324 23.7548 11.5804 21.8776 15.6109 21.8776H18.5648V18.9238C18.5648 14.8933 20.4419 13.0161 24.4725 13.0161C28.503 13.0161 30.3802 14.8933 30.3802 18.9238V21.8776H33.334C37.3645 21.8776 39.2417 23.7548 39.2417 27.7853C39.2417 31.8159 37.3645 33.693 33.334 33.693V36.6469C38.9655 36.6469 42.1955 33.4168 42.1955 27.7853C42.1955 22.1538 38.9655 18.9238 33.334 18.9238Z" fill="#F7F5F2"/>
<path d="M23.734 33.8192L19.6089 29.6949L17.5206 31.7833L23.734 37.9975L32.9012 28.8295L30.8129 26.7411L23.734 33.8192Z" fill="#F7F5F2"/>
</svg>
