<svg width="94" height="23" viewBox="0 0 94 23" fill="none" xmlns="http://www.w3.org/2000/svg">
<g clip-path="url(#clip0_3_765)">
<path fill-rule="evenodd" clip-rule="evenodd" d="M79.0162 17.7386L83.8481 11.2381L79.3912 5.09602H83.2083L85.7897 8.92829L88.3933 5.09602H92.1883L87.6652 11.2161L92.431 17.7386H88.6801L85.7456 13.6139L82.8994 17.7386H79.0162Z" fill="#1E1919"/>
<path fill-rule="evenodd" clip-rule="evenodd" d="M66.8669 11.6699C66.8669 15.8425 69.1462 18.0607 73.1838 18.0607C76.9609 18.0607 79.5224 15.8425 79.5224 11.6699V11.3185C79.5224 7.10185 76.9175 4.77393 73.1838 4.77393C69.5369 4.77393 66.8669 7.05793 66.8669 11.3185V11.6699ZM76.2319 11.6708C76.2319 13.9856 75.078 15.2423 73.1837 15.2423C71.3113 15.2423 70.1573 13.9636 70.1573 11.6708V11.3622C70.1573 8.89304 71.3766 7.59233 73.2055 7.59233C75.0562 7.59233 76.2319 8.98123 76.2319 11.3622V11.6708Z" fill="#1E1919"/>
<path fill-rule="evenodd" clip-rule="evenodd" d="M55.8291 15.4264C56.5138 17.0509 57.8831 18.0607 59.9814 18.0607C63.228 18.0607 65.3483 15.6898 65.3483 11.475V11.1018C65.3483 6.88698 63.0955 4.80151 60.0697 4.77956C58.0598 4.77956 56.6463 5.6796 55.9396 7.32602V0.828156H52.6929V17.7314H55.5641L55.8291 15.4264ZM62.0579 11.5052C62.0579 14.0112 60.8998 15.2423 58.9987 15.2423C57.1851 15.2423 55.9833 13.8793 55.9833 11.5052V11.2414C55.9833 9.06516 57.2288 7.59232 59.0424 7.59232C60.7905 7.59232 62.0579 8.86731 62.0579 11.1975V11.5052Z" fill="#1E1919"/>
<path fill-rule="evenodd" clip-rule="evenodd" d="M38.2655 5.11092V22.087H41.5065V15.7295C42.19 17.2065 43.535 18.1102 45.5634 18.1102C48.5619 18.1102 50.921 15.9279 50.921 11.7397V11.387C50.921 7.11054 48.8044 4.77393 45.5634 4.77393C43.4688 4.77393 42.0577 5.85406 41.3743 7.48528L41.0435 5.11092H38.2655ZM47.6306 11.6591C47.6306 13.9893 46.4287 15.2423 44.5495 15.2423C42.7359 15.2423 41.5559 13.8354 41.5559 11.5932V11.3513C41.5559 8.99922 42.7796 7.59233 44.6151 7.59233C46.3413 7.59233 47.6306 8.84534 47.6306 11.3733V11.6591Z" fill="#1E1919"/>
<path fill-rule="evenodd" clip-rule="evenodd" d="M23.8384 11.6699C23.8384 15.8425 26.1394 18.0607 30.177 18.0607C33.9541 18.0607 36.4938 15.8425 36.4938 11.6699V11.3185C36.4938 7.10185 33.9106 4.77393 30.177 4.77393C26.5301 4.77393 23.8384 7.05793 23.8384 11.3185V11.6699ZM33.2034 11.6708C33.2034 13.9856 32.0277 15.2423 30.1552 15.2423C28.2828 15.2423 27.1288 13.9636 27.1288 11.6708V11.3622C27.1288 8.89304 28.3481 7.59233 30.177 7.59233C32.0277 7.59233 33.2034 8.98123 33.2034 11.3622V11.6708Z" fill="#1E1919"/>
<path fill-rule="evenodd" clip-rule="evenodd" d="M14.9795 17.7386H18.299V11.9307C18.299 9.24683 18.9629 8.30086 21.707 8.30086H23.079V4.93497H22.2602C19.8924 4.93497 18.5867 5.96893 18.0777 7.99287L17.6572 5.09528H14.9795V17.7386Z" fill="#1E1919"/>
<path fill-rule="evenodd" clip-rule="evenodd" d="M0.299072 2.11656V17.7386H6.3261C10.2521 17.7386 13.2077 15.4581 13.2077 10.4148V9.34039C13.2077 4.31904 10.0757 2.11656 6.23788 2.11656H0.299072ZM3.5895 4.93496H6.10036C8.36804 4.93496 9.91724 6.36771 9.91724 9.51977V10.3353C9.91724 13.4874 8.41294 14.9202 6.21262 14.9202H3.5895V4.93496Z" fill="#1E1919"/>
</g>
<defs>
<clipPath id="clip0_3_765">
<rect width="93" height="22" fill="white" transform="translate(0.0135498 0.542999)"/>
</clipPath>
</defs>
</svg>
