<svg width="33" height="33" viewBox="0 0 33 33" fill="none" xmlns="http://www.w3.org/2000/svg">
<g clip-path="url(#clip0_3_737)">
<path d="M27.3677 16.4806C27.3677 13.6517 26.2439 10.9385 24.2435 8.93816C22.2431 6.93777 19.53 5.81396 16.701 5.81396C14.0175 5.81555 11.4331 6.82845 9.46317 8.65072C7.49322 10.473 6.28241 12.9707 6.07213 15.646C5.86185 18.3213 6.66755 20.9776 8.3286 23.0852C9.98964 25.1929 12.384 26.5971 15.0343 27.018V19.5646H12.3263V16.4806H15.0343V14.1313C15.0343 11.458 16.6263 9.98063 19.0637 9.98063C20.2303 9.98063 21.4503 10.1886 21.4503 10.1886V12.814H20.105C18.7797 12.814 18.3677 13.6366 18.3677 14.4806V16.4806H21.3263L20.853 19.5646H18.3677V27.018C20.8768 26.6208 23.1617 25.3413 24.8116 23.4096C26.4614 21.4779 27.3678 19.021 27.3677 16.4806Z" fill="#F7F5F2"/>
</g>
<defs>
<clipPath id="clip0_3_737">
<rect width="32" height="32" fill="white" transform="translate(0.70105 0.480469)"/>
</clipPath>
</defs>
</svg>
