<svg width="49" height="49" viewBox="0 0 49 49" fill="none" xmlns="http://www.w3.org/2000/svg">
<path d="M19.1834 21.9355L17.0624 24.0565L23.3729 30.367L32.6834 21.0565L30.5624 18.9355L23.3729 26.125L19.1834 21.9355Z" fill="#F7F5F2"/>
<path d="M24.1229 6.30103L8.37293 14.5908V21.0573C8.36288 24.6625 9.27076 28.2111 11.011 31.3685C12.7513 34.526 15.2666 37.1885 18.3202 39.1053L24.1229 42.7698L29.9257 39.1045C32.9792 37.188 35.4947 34.5256 37.235 31.3683C38.9753 28.2109 39.8831 24.6625 39.8729 21.0573V14.5908L24.1229 6.30103ZM36.8729 21.0573C36.882 24.1564 36.1019 27.2067 34.6061 29.9209C33.1102 32.635 30.9479 34.9237 28.3229 36.571L24.1229 39.2223L19.9229 36.571C17.2982 34.9235 15.136 32.6348 13.6401 29.9207C12.1443 27.2065 11.3641 24.1563 11.3729 21.0573V16.4013L24.1229 9.69103L36.8729 16.4013V21.0573Z" fill="#F7F5F2"/>
</svg>
