<svg width="49" height="49" viewBox="0 0 49 49" fill="none" xmlns="http://www.w3.org/2000/svg">
<path d="M20.951 20.746C20.9754 20.4444 20.9338 20.141 20.8293 19.857C20.7249 19.573 20.5599 19.315 20.346 19.1011C20.132 18.8871 19.8741 18.7221 19.59 18.6177C19.306 18.5132 19.0026 18.4717 18.701 18.496C18.3993 18.4717 18.096 18.5132 17.8119 18.6177C17.5279 18.7221 17.27 18.8871 17.056 19.1011C16.842 19.315 16.677 19.573 16.5726 19.857C16.4682 20.141 16.4266 20.4444 16.451 20.746C16.4266 21.0477 16.4682 21.3511 16.5726 21.6351C16.677 21.9191 16.842 22.177 17.056 22.391C17.27 22.605 17.5279 22.77 17.8119 22.8744C18.096 22.9789 18.3993 23.0204 18.701 22.996C19.0026 23.0204 19.306 22.9789 19.59 22.8744C19.8741 22.77 20.132 22.605 20.346 22.391C20.5599 22.177 20.7249 21.9191 20.8293 21.6351C20.9338 21.3511 20.9754 21.0477 20.951 20.746Z" fill="#F7F5F2"/>
<path d="M30.701 18.496C30.3993 18.4717 30.096 18.5132 29.8119 18.6177C29.5279 18.7221 29.27 18.8871 29.056 19.1011C28.842 19.315 28.677 19.573 28.5726 19.857C28.4682 20.141 28.4266 20.4444 28.451 20.746C28.4266 21.0477 28.4682 21.3511 28.5726 21.6351C28.677 21.9191 28.842 22.177 29.056 22.391C29.27 22.605 29.5279 22.77 29.8119 22.8744C30.096 22.9789 30.3993 23.0204 30.701 22.996C31.0026 23.0204 31.306 22.9789 31.59 22.8744C31.8741 22.77 32.132 22.605 32.346 22.391C32.5599 22.177 32.7249 21.9191 32.8293 21.6351C32.9338 21.3511 32.9754 21.0477 32.951 20.746C32.9754 20.4444 32.9338 20.141 32.8293 19.857C32.7249 19.573 32.5599 19.315 32.346 19.1011C32.132 18.8871 31.8741 18.7221 31.59 18.6177C31.306 18.5132 31.0026 18.4717 30.701 18.496Z" fill="#F7F5F2"/>
<path d="M24.701 6.49609C13.0933 6.49609 6.70105 12.8883 6.70105 24.4961C6.70105 36.1038 13.0933 42.4961 24.701 42.4961C36.3088 42.4961 42.701 36.1038 42.701 24.4961C42.701 12.8883 36.3088 6.49609 24.701 6.49609ZM24.701 39.4961C14.7478 39.4961 9.70105 34.4493 9.70105 24.4961C9.70105 14.5428 14.7478 9.49609 24.701 9.49609C34.6543 9.49609 39.701 14.5428 39.701 24.4961C39.701 34.4493 34.6543 39.4961 24.701 39.4961Z" fill="#F7F5F2"/>
<path d="M29.201 26.7461C29.201 29.5136 26.777 30.4961 24.701 30.4961C22.625 30.4961 20.201 29.5136 20.201 26.7461V25.9961H17.201V26.7461C17.201 30.7211 20.285 33.4961 24.701 33.4961C29.117 33.4961 32.201 30.7211 32.201 26.7461V25.9961H29.201V26.7461Z" fill="#F7F5F2"/>
</svg>
