<svg width="49" height="49" viewBox="0 0 49 49" fill="none" xmlns="http://www.w3.org/2000/svg">
<path d="M33.4746 21.8776V18.9238H30.5208C28.1714 18.9211 25.919 17.9865 24.2577 16.3253C22.5965 14.664 21.662 12.4117 21.6592 10.0622V7.1084H18.7054V10.0622C18.7027 12.4117 17.7681 14.664 16.1069 16.3253C14.4457 17.9865 12.1933 18.9211 9.84386 18.9238H6.89001V21.8776H9.84386C12.1933 21.8804 14.4457 22.8149 16.1069 24.4761C17.7681 26.1374 18.7027 28.3898 18.7054 30.7392V33.693H21.6592V30.7392C21.662 28.3898 22.5965 26.1374 24.2577 24.4761C25.919 22.8149 28.1714 21.8804 30.5208 21.8776H33.4746ZM20.1823 25.0235C19.1033 23.0811 17.5019 21.4797 15.5596 20.4007C17.5019 19.3217 19.1033 17.7203 20.1823 15.7779C21.2614 17.7203 22.8627 19.3217 24.8051 20.4007C22.8627 21.4797 21.2614 23.0811 20.1823 25.0235Z" fill="#F7F5F2"/>
<path d="M40.9626 33.693C39.7605 33.6916 38.608 33.2135 37.758 32.3634C36.9079 31.5134 36.4299 30.361 36.4285 29.1588V27.7853H33.4746V29.1588C33.4732 30.361 32.9951 31.5134 32.1451 32.3634C31.295 33.2135 30.1426 33.6916 28.9405 33.693H27.5669V36.6468H28.9405C30.1426 36.6482 31.295 37.1263 32.1451 37.9763C32.9951 38.8264 33.4732 39.9788 33.4746 41.181V42.5545H36.4285V41.181C36.4299 39.9788 36.9079 38.8264 37.758 37.9763C38.608 37.1263 39.7605 36.6482 40.9626 36.6468H42.3362V33.693H40.9626Z" fill="#F7F5F2"/>
</svg>
