<svg width="33" height="33" viewBox="0 0 33 33" fill="none" xmlns="http://www.w3.org/2000/svg">
<g clip-path="url(#clip0_3_734)">
<path d="M12.7358 25.1606C20.7864 25.1606 25.1904 18.4846 25.1904 12.706C25.1904 12.518 25.1904 12.33 25.1824 12.142C26.0399 11.5208 26.7799 10.7519 27.3678 9.8713C26.5669 10.225 25.7182 10.4582 24.8491 10.5633C25.7648 10.0153 26.4504 9.15346 26.7784 8.13797C25.9185 8.648 24.9772 9.00613 23.9958 9.19663C23.5866 8.75971 23.092 8.41153 22.5427 8.17368C21.9934 7.93584 21.401 7.8134 20.8024 7.81397C19.6412 7.81503 18.5279 8.27687 17.7069 9.09809C16.886 9.91931 16.4245 11.0328 16.4238 12.194C16.4238 12.5353 16.4664 12.8673 16.5344 13.1926C14.7937 13.105 13.0909 12.6524 11.5365 11.864C9.98211 11.0757 8.61085 9.96929 7.51176 8.61663C6.95291 9.58148 6.78221 10.7228 7.0343 11.809C7.2864 12.8951 7.94239 13.8446 8.86909 14.4646C8.1749 14.4404 7.49616 14.2531 6.88776 13.918V13.978C6.88884 14.9883 7.23862 15.9672 7.87801 16.7495C8.5174 17.5317 9.4072 18.0692 10.3971 18.2713C10.0215 18.3749 9.6334 18.4265 9.24376 18.4246C8.96376 18.4246 8.68909 18.3993 8.42509 18.3486C8.70412 19.2188 9.24847 19.9798 9.98183 20.525C10.7152 21.0702 11.6008 21.3722 12.5144 21.3886C10.9638 22.6075 9.04805 23.2688 7.07576 23.266C6.72774 23.2675 6.37996 23.2475 6.03442 23.206C8.03615 24.4831 10.3613 25.1613 12.7358 25.1606Z" fill="#F7F5F2"/>
</g>
<defs>
<clipPath id="clip0_3_734">
<rect width="32" height="32" fill="white" transform="translate(0.70105 0.480469)"/>
</clipPath>
</defs>
</svg>
