<svg width="33" height="33" viewBox="0 0 33 33" fill="none" xmlns="http://www.w3.org/2000/svg">
<g clip-path="url(#clip0_3_740)">
<path fill-rule="evenodd" clip-rule="evenodd" d="M26.2318 10.291C26.5638 10.6216 26.8011 11.0336 26.9238 11.4856C27.3624 13.1496 27.3678 16.6203 27.3678 16.6203C27.3678 16.6203 27.3678 20.0923 26.9238 21.7563C26.8017 22.2082 26.5633 22.6201 26.2322 22.9509C25.9011 23.2818 25.489 23.5199 25.0371 23.6416C23.3744 24.0883 16.7011 24.0883 16.7011 24.0883C16.7011 24.0883 10.0291 24.0883 8.36776 23.6416C7.91569 23.5202 7.50347 23.2821 7.17236 22.9512C6.84125 22.6203 6.60287 22.2083 6.48109 21.7563C6.03442 20.0923 6.03442 16.6203 6.03442 16.6203C6.03442 16.6203 6.03442 13.1496 6.48109 11.487C6.60141 11.0336 6.839 10.6199 7.16996 10.2876C7.50092 9.95521 7.91358 9.71587 8.36642 9.59364C10.0278 9.14697 16.7011 9.14697 16.7011 9.14697C16.7011 9.14697 23.3731 9.14697 25.0371 9.60031C25.4904 9.72164 25.9011 9.96031 26.2318 10.291ZM20.1118 16.6203L14.5678 13.4203V19.8203L20.1118 16.6203Z" fill="#F7F5F2"/>
</g>
<defs>
<clipPath id="clip0_3_740">
<rect width="32" height="32" fill="white" transform="translate(0.70105 0.480469)"/>
</clipPath>
</defs>
</svg>
